# xmcd CD database file
#
# Track frame offsets:
#	150
#	18331
#	29825
#	48968
#	61878
#	82553
#	104122
#	120469
#	138299
#	159120
#	172491
#	191907
#	209918
#	227853
#
# Disc length: 3389 seconds
#
# Revision: 2
# Processed by: cddbd v1.5.2PL0 Copyright (c) Steve Scherf et al.
# Submitted via: CDex 1.51
#
DISCID=c60d3b0e
DTITLE=Les Inrockuptibles - Printemps 2006
DYEAR=2006
DGENRE=Rock
TTITLE0=Guillemots - Trains to Brazil
TTITLE1=Dirty Pretty Things - The Gentry Cove
TTITLE2=TV On The Radio - Dirty Whirl
TTITLE3=Le Klub des 7 - Le Parapluie
TTITLE4=Arman Melies - Low Cost
TTITLE5=Midlake - Roscoe
TTITLE6=Nouvelle Vague - The Killing Moon
TTITLE7=Peter von Poehl - The Bell Tolls Five
TTITLE8=Dilinger Girl and Baby Face Nelson - Share
TTITLE9=Final Fantasy - Many Lives
TTITLE10=Beirut - Postcards From Italy
TTITLE11=Para One - Dudun-Dun (sauvage)
TTITLE12=Bless - La Raison Pure
TTITLE13=Arte Radio - MarabOuRaPo
EXTD=YEAR: 2006
EXTT0=
EXTT1=
EXTT2=
EXTT3=
EXTT4=
EXTT5=
EXTT6=
EXTT7=
EXTT8=
EXTT9=
EXTT10=
EXTT11=
EXTT12=
EXTT13=
PLAYORDER=
